<svg 
 xmlns="http://www.w3.org/2000/svg"
 xmlns:xlink="http://www.w3.org/1999/xlink"
 width="801px" height="642px">
<path fill-rule="evenodd"  fill="rgb(0, 0, 0)"
 d="M490.0,0.999 C510.16,0.463 520.183,7.366 527.999,18.999 C528.666,19.333 529.333,19.666 530.0,19.999 C530.333,21.333 530.666,22.666 530.999,23.999 C531.333,23.999 531.666,23.999 531.999,23.999 C531.999,24.666 531.999,25.333 531.999,26.0 C532.333,26.0 532.666,26.0 533.0,26.0 C533.0,26.999 533.0,28.0 533.0,28.999 C534.298,32.324 537.758,43.38 536.0,48.999 C535.666,48.999 535.333,48.999 534.999,48.999 C534.999,50.999 534.999,53.0 534.999,55.0 C534.666,55.0 534.333,55.0 534.0,55.0 C533.666,56.999 533.333,59.0 533.0,60.999 C532.666,60.999 532.333,60.999 531.999,60.999 C531.999,61.999 531.999,63.0 531.999,64.0 C531.666,64.0 531.333,64.0 530.999,64.0 C530.999,64.666 530.999,65.333 530.999,65.999 C530.666,65.999 530.333,65.999 530.0,65.999 C530.0,66.999 530.0,68.0 530.0,69.0 C529.666,69.0 529.333,69.0 529.0,69.0 C529.0,70.333 529.0,71.666 529.0,73.0 C528.666,73.0 528.333,73.0 527.999,73.0 C527.999,73.666 527.999,74.333 527.999,74.999 C527.666,74.999 527.333,74.999 527.0,74.999 C526.666,76.999 526.333,79.0 526.0,80.999 C525.666,80.999 525.333,80.999 525.0,80.999 C525.0,81.999 525.0,83.0 525.0,83.999 C524.666,83.999 524.333,83.999 523.999,83.999 C523.999,84.999 523.999,86.0 523.999,87.0 C523.666,87.0 523.333,87.0 523.0,87.0 C523.0,87.999 523.0,89.0 523.0,89.999 C522.666,89.999 522.333,89.999 522.0,89.999 C522.0,90.999 522.0,92.0 522.0,92.999 C521.666,92.999 521.333,92.999 520.999,92.999 C520.999,93.999 520.999,95.0 520.999,95.999 C520.666,95.999 520.333,95.999 519.999,95.999 C519.999,96.666 519.999,97.333 519.999,97.999 C519.666,97.999 519.333,97.999 519.0,97.999 C518.333,100.999 517.666,104.0 516.999,107.0 C516.666,107.0 516.333,107.0 516.0,107.0 C516.0,107.999 516.0,109.0 516.0,109.999 C515.666,109.999 515.333,109.999 515.0,109.999 C515.0,110.999 515.0,112.0 515.0,112.999 C514.666,112.999 514.333,112.999 513.999,112.999 C513.999,113.999 513.999,115.0 513.999,116.0 C513.666,116.0 513.333,116.0 512.999,116.0 C512.999,116.999 512.999,118.0 512.999,118.999 C512.666,118.999 512.333,118.999 512.0,118.999 C512.0,119.666 512.0,120.333 512.0,121.0 C511.666,121.0 511.333,121.0 511.0,121.0 C511.0,122.333 511.0,123.666 511.0,125.0 C510.666,125.0 510.333,125.0 509.999,125.0 C509.999,125.999 509.999,127.0 509.999,127.999 C509.666,127.999 509.333,127.999 509.0,127.999 C509.0,128.666 509.0,129.333 509.0,130.0 C508.666,130.0 508.333,130.0 508.0,130.0 C507.666,131.999 507.333,134.0 506.999,135.999 C506.666,135.999 506.333,135.999 505.999,135.999 C505.999,136.999 505.999,138.0 505.999,139.0 C505.666,139.0 505.333,139.0 505.0,139.0 C505.0,139.999 505.0,141.0 505.0,141.999 C504.666,141.999 504.333,141.999 504.0,141.999 C504.0,142.999 504.0,144.0 504.0,144.999 C503.666,144.999 503.333,144.999 502.999,144.999 C502.999,145.999 502.999,147.0 502.999,148.0 C502.666,148.0 502.333,148.0 501.999,148.0 C501.999,148.999 501.999,150.0 501.999,150.999 C501.666,150.999 501.333,150.999 501.0,150.999 C501.0,151.666 501.0,152.333 501.0,153.0 C500.666,153.0 500.333,153.0 500.0,153.0 C499.666,155.333 499.333,157.666 498.999,159.999 C498.666,159.999 498.333,159.999 498.0,159.999 C498.0,160.666 498.0,161.333 498.0,162.0 C497.666,162.0 497.333,162.0 497.0,162.0 C497.0,162.999 497.0,164.0 497.0,164.999 C496.666,164.999 496.333,164.999 495.999,164.999 C495.999,165.999 495.999,167.0 495.999,168.0 C495.666,168.0 495.333,168.0 494.999,168.0 C494.999,168.999 494.999,170.0 494.999,170.999 C494.666,170.999 494.333,170.999 494.0,170.999 C494.0,171.999 494.0,173.0 494.0,173.999 C493.666,173.999 493.333,173.999 493.0,173.999 C493.0,174.999 493.0,176.0 493.0,177.0 C492.666,177.0 492.333,177.0 491.999,177.0 C491.999,177.999 491.999,179.0 491.999,179.999 C491.666,179.999 491.333,179.999 491.0,179.999 C491.0,180.999 491.0,182.0 491.0,182.999 C490.666,182.999 490.333,182.999 490.0,182.999 C490.0,183.666 490.0,184.333 490.0,184.999 C489.666,184.999 489.333,184.999 488.999,184.999 C488.333,187.999 487.666,191.0 487.0,193.999 C486.666,193.999 486.333,193.999 486.0,193.999 C485.333,196.999 484.666,200.0 484.0,202.999 C483.666,202.999 483.333,202.999 483.0,202.999 C483.0,203.666 483.0,204.333 483.0,205.0 C482.666,205.0 482.333,205.0 481.999,205.0 C481.333,208.333 480.666,211.667 480.0,215.0 C479.666,215.0 479.333,215.0 479.0,215.0 C479.0,215.666 479.0,216.333 479.0,216.999 C478.666,216.999 478.333,216.999 477.999,216.999 C477.999,217.999 477.999,219.0 477.999,220.0 C477.666,220.0 477.333,220.0 476.999,220.0 C476.999,220.999 476.999,222.0 476.999,222.999 C476.666,222.999 476.333,222.999 476.0,222.999 C476.0,223.999 476.0,225.0 476.0,225.999 C475.666,225.999 475.333,225.999 475.0,225.999 C475.0,226.999 475.0,228.0 475.0,229.0 C474.666,229.0 474.333,229.0 473.999,229.0 C473.999,229.999 473.999,231.0 473.999,231.999 C473.666,231.999 473.333,231.999 473.0,231.999 C472.666,233.999 472.333,236.0 472.0,238.0 C471.666,238.0 471.333,238.0 470.999,238.0 C470.999,238.666 470.999,239.333 470.999,239.999 C470.666,239.999 470.333,239.999 469.999,239.999 C469.666,242.333 469.333,244.666 469.0,247.0 C468.666,247.0 468.333,247.0 468.0,247.0 C468.0,247.666 468.0,248.333 468.0,248.999 C467.666,248.999 467.333,248.999 466.999,248.999 C466.333,251.999 465.666,255.0 465.0,258.0 C464.666,258.0 464.333,258.0 463.999,258.0 C463.999,258.666 463.999,259.333 463.999,259.999 C463.666,259.999 463.333,259.999 462.999,259.999 C462.999,261.333 462.999,262.666 462.999,263.999 C462.666,263.999 462.333,263.999 462.0,263.999 C461.666,265.999 461.333,268.0 461.0,269.999 C460.666,269.999 460.333,269.999 459.999,269.999 C459.999,270.666 459.999,271.333 459.999,272.0 C459.666,272.0 459.333,272.0 458.999,272.0 C458.666,273.999 458.333,276.0 458.0,277.999 C457.666,277.999 457.333,277.999 457.0,277.999 C457.0,279.333 457.0,280.666 457.0,281.999 C456.666,281.999 456.333,281.999 455.999,281.999 C455.999,282.666 455.999,283.333 455.999,283.999 C455.666,283.999 455.333,283.999 455.0,283.999 C454.333,286.999 453.666,290.0 452.999,292.999 C452.666,292.999 452.333,292.999 451.999,292.999 C451.999,293.666 451.999,294.333 451.999,295.0 C451.666,295.0 451.333,295.0 451.0,295.0 C451.0,296.333 451.0,297.666 451.0,299.0 C450.666,299.0 450.333,299.0 450.0,299.0 C450.0,299.999 450.0,301.0 450.0,301.999 C449.666,301.999 449.333,301.999 448.999,301.999 C448.999,302.666 448.999,303.333 448.999,304.0 C448.666,304.0 448.333,304.0 448.0,304.0 C448.0,304.999 448.0,306.0 448.0,306.999 C447.666,306.999 447.333,306.999 447.0,306.999 C447.0,307.999 447.0,309.0 447.0,309.999 C446.666,309.999 446.333,309.999 445.999,309.999 C445.999,310.999 445.999,312.0 445.999,313.0 C445.666,313.0 445.333,313.0 444.999,313.0 C444.333,315.999 443.666,319.0 443.0,322.0 C442.666,322.0 442.333,322.0 441.999,322.0 C441.999,322.999 441.999,324.0 441.999,324.999 C441.666,324.999 441.333,324.999 441.0,324.999 C441.0,325.666 441.0,326.333 441.0,327.0 C440.666,327.0 440.333,327.0 440.0,327.0 C439.666,329.333 439.333,331.666 438.999,333.999 C438.666,333.999 438.333,333.999 437.999,333.999 C437.999,334.666 437.999,335.333 437.999,336.0 C437.666,336.0 437.333,336.0 437.0,336.0 C437.0,336.999 437.0,338.0 437.0,338.999 C436.666,338.999 436.333,338.999 436.0,338.999 C436.0,339.999 436.0,341.0 436.0,342.0 C435.666,342.0 435.333,342.0 434.999,342.0 C434.999,342.999 434.999,344.0 434.999,344.999 C434.666,344.999 434.333,344.999 433.999,344.999 C433.999,345.999 433.999,347.0 433.999,347.999 C433.666,347.999 433.333,347.999 433.0,347.999 C432.333,350.999 431.666,354.0 430.999,357.0 C430.666,357.0 430.333,357.0 430.0,357.0 C430.0,357.666 430.0,358.333 430.0,358.999 C429.666,358.999 429.333,358.999 429.0,358.999 C429.0,359.999 429.0,361.0 429.0,361.999 C428.666,361.999 428.333,361.999 427.999,361.999 C426.333,367.999 424.666,374.0 423.0,380.0 C422.666,380.0 422.333,380.0 422.0,380.0 C422.0,380.666 422.0,381.333 422.0,381.999 C421.666,381.999 421.333,381.999 420.999,381.999 C420.666,384.333 420.333,386.666 419.999,389.0 C419.666,389.0 419.333,389.0 419.0,389.0 C419.0,389.666 419.0,390.333 419.0,390.999 C418.666,390.999 418.333,390.999 418.0,390.999 C418.0,391.999 418.0,393.0 418.0,394.0 C417.666,394.0 417.333,394.0 416.999,394.0 C416.999,394.999 416.999,396.0 416.999,397.0 C416.666,397.0 416.333,397.0 415.999,397.0 C415.999,397.999 415.999,399.0 415.999,399.999 C415.666,399.999 415.333,399.999 415.0,399.999 C415.0,400.999 415.0,402.0 415.0,403.0 C414.666,403.0 414.333,403.0 413.999,403.0 C413.999,403.999 413.999,405.0 413.999,405.999 C413.666,405.999 413.333,405.999 412.999,405.999 C412.666,407.999 412.333,410.0 412.0,412.0 C411.666,412.0 411.333,412.0 411.0,412.0 C411.0,412.666 411.0,413.333 411.0,413.999 C410.666,413.999 410.333,413.999 409.999,413.999 C409.666,416.333 409.333,418.666 408.999,421.0 C397.106,450.610 387.908,483.317 376.0,512.999 C376.0,513.999 376.0,515.0 376.0,516.0 C375.666,516.0 375.333,516.0 375.0,516.0 C375.0,516.999 375.0,518.0 375.0,518.999 C374.666,518.999 374.333,518.999 373.999,518.999 C373.999,519.999 373.999,521.0 373.999,522.0 C373.666,522.0 373.333,522.0 372.999,522.0 C372.999,522.999 372.999,524.0 372.999,525.0 C372.666,525.0 372.333,525.0 372.0,525.0 C372.0,525.999 372.0,527.0 372.0,527.999 C371.666,527.999 371.333,527.999 370.999,527.999 C370.999,528.999 370.999,530.0 370.999,531.0 C370.666,531.0 370.333,531.0 369.999,531.0 C369.999,531.999 369.999,533.0 369.999,534.0 C369.666,534.0 369.333,534.0 369.0,534.0 C369.0,534.666 369.0,535.333 369.0,536.0 C368.666,536.0 368.333,536.0 368.0,536.0 C368.0,536.999 368.0,538.0 368.0,539.0 C367.666,539.0 367.333,539.0 366.999,539.0 C366.999,540.333 366.999,541.666 366.999,543.0 C366.666,543.0 366.333,543.0 365.999,543.0 C365.999,543.666 365.999,544.333 365.999,545.0 C365.666,545.0 365.333,545.0 365.0,545.0 C364.333,547.999 363.666,551.0 362.999,554.0 C362.666,554.0 362.333,554.0 362.0,554.0 C362.0,554.666 362.0,555.333 362.0,555.999 C361.666,555.999 361.333,555.999 361.0,555.999 C360.666,558.333 360.333,560.666 359.999,563.0 C359.666,563.0 359.333,563.0 358.999,563.0 C358.999,563.666 358.999,564.333 358.999,564.999 C358.666,564.999 358.333,564.999 358.0,564.999 C358.0,565.999 358.0,567.0 358.0,568.0 C357.666,568.0 357.333,568.0 357.0,568.0 C357.0,568.999 357.0,570.0 357.0,571.0 C356.666,571.0 356.333,571.0 355.999,571.0 C355.999,571.999 355.999,573.0 355.999,574.0 C355.666,574.0 355.333,574.0 354.999,574.0 C354.999,574.999 354.999,576.0 354.999,577.0 C354.666,577.0 354.333,577.0 354.0,577.0 C354.0,577.999 354.0,579.0 354.0,579.999 C353.666,579.999 353.333,579.999 352.999,579.999 C352.666,581.999 352.333,584.0 351.999,586.0 C351.666,586.0 351.333,586.0 351.0,586.0 C351.0,586.666 351.0,587.333 351.0,588.0 C350.666,588.0 350.333,588.0 350.0,588.0 C350.0,588.999 350.0,590.0 350.0,591.0 C349.666,591.0 349.333,591.0 348.999,591.0 C348.999,592.333 348.999,593.666 348.999,595.0 C348.666,595.0 348.333,595.0 347.999,595.0 C347.999,595.999 347.999,597.0 347.999,597.999 C347.666,597.999 347.333,597.999 347.0,597.999 C347.0,598.666 347.0,599.333 347.0,600.0 C346.666,600.0 346.333,600.0 345.999,600.0 C345.666,601.999 345.333,604.0 344.999,606.0 C341.519,614.725 338.120,623.882 332.0,630.0 C326.10,635.985 306.820,645.489 293.0,640.0 C293.0,639.666 293.0,639.333 293.0,639.0 C292.333,639.0 291.666,639.0 290.999,639.0 C290.999,638.666 290.999,638.333 290.999,638.0 C290.0,638.0 288.999,638.0 287.999,638.0 C287.999,637.666 287.999,637.333 287.999,637.0 C286.666,636.666 285.333,636.333 283.999,635.999 C280.333,632.666 276.666,629.333 272.999,626.0 C272.999,625.333 272.999,624.666 272.999,624.0 C272.333,623.666 271.666,623.333 270.999,623.0 C270.666,621.666 270.333,620.333 269.999,619.0 C269.333,618.666 268.666,618.333 268.0,618.0 C268.0,617.0 268.0,615.999 268.0,615.0 C267.666,615.0 267.333,615.0 266.999,615.0 C266.999,614.333 266.999,613.666 266.999,612.999 C266.666,612.999 266.333,612.999 265.999,612.999 C265.666,609.0 265.333,604.999 265.0,601.0 C264.666,601.0 264.333,601.0 264.0,601.0 C264.333,596.667 264.666,592.332 265.0,588.0 C265.333,588.0 265.666,588.0 265.999,588.0 C265.999,587.0 265.999,585.999 265.999,585.0 C266.333,585.0 266.666,585.0 266.999,585.0 C266.999,584.0 266.999,582.999 266.999,582.0 C267.333,582.0 267.666,582.0 268.0,582.0 C268.0,581.0 268.0,579.999 268.0,578.999 C268.333,578.999 268.666,578.999 268.999,578.999 C268.999,578.333 268.999,577.666 268.999,577.0 C269.333,577.0 269.666,577.0 269.999,577.0 C270.333,574.666 270.666,572.333 270.999,569.999 C271.333,569.999 271.666,569.999 272.0,569.999 C272.0,569.333 272.0,568.666 272.0,568.0 C272.333,568.0 272.666,568.0 272.999,568.0 C272.999,567.0 272.999,565.999 272.999,564.999 C273.333,564.999 273.666,564.999 273.999,564.999 C273.999,564.0 273.999,562.999 273.999,562.0 C274.333,562.0 274.666,562.0 275.0,562.0 C275.0,561.0 275.0,559.999 275.0,559.0 C275.333,559.0 275.666,559.0 276.0,559.0 C276.0,558.0 276.0,556.999 276.0,555.999 C276.333,555.999 276.666,555.999 276.999,555.999 C276.999,555.0 276.999,553.999 276.999,553.0 C277.333,553.0 277.666,553.0 277.999,553.0 C277.999,552.0 277.999,550.999 277.999,550.0 C278.333,550.0 278.666,550.0 279.0,550.0 C279.0,549.0 279.0,547.999 279.0,546.999 C279.333,546.999 279.666,546.999 279.999,546.999 C279.999,546.333 279.999,545.666 279.999,545.0 C280.333,545.0 280.666,545.0 280.999,545.0 C281.333,543.0 281.666,540.999 282.0,539.0 C282.333,539.0 282.666,539.0 283.0,539.0 C283.0,537.666 283.0,536.333 283.0,535.0 C283.333,535.0 283.666,535.0 283.999,535.0 C283.999,534.333 283.999,533.666 283.999,532.999 C284.333,532.999 284.666,532.999 284.999,532.999 C285.666,530.0 286.333,526.999 286.999,524.0 C287.333,524.0 287.666,524.0 287.999,524.0 C287.999,523.333 287.999,522.666 287.999,522.0 C288.333,522.0 288.666,522.0 289.0,522.0 C289.333,519.666 289.666,517.333 290.0,515.0 C290.333,515.0 290.666,515.0 290.999,515.0 C290.999,514.333 290.999,513.666 290.999,512.999 C291.333,512.999 291.666,512.999 291.999,512.999 C291.999,512.0 291.999,510.999 291.999,510.0 C292.333,510.0 292.666,510.0 293.0,510.0 C293.0,509.0 293.0,507.999 293.0,507.0 C293.333,507.0 293.666,507.0 294.0,507.0 C294.0,506.0 294.0,504.999 294.0,503.999 C294.333,503.999 294.666,503.999 294.999,503.999 C294.999,503.0 294.999,501.999 294.999,501.0 C295.333,501.0 295.666,501.0 295.999,501.0 C295.999,500.0 295.999,498.999 295.999,498.0 C296.333,498.0 296.666,498.0 297.0,498.0 C297.333,496.0 297.666,493.999 297.999,492.0 C298.333,492.0 298.666,492.0 298.999,492.0 C298.999,491.333 298.999,490.666 298.999,489.999 C299.333,489.999 299.666,489.999 300.0,489.999 C300.0,489.0 300.0,487.999 300.0,487.0 C300.333,487.0 300.666,487.0 301.0,487.0 C301.333,484.666 301.666,482.333 301.999,479.999 C312.586,455.621 319.422,427.423 329.999,403.0 C330.333,400.666 330.666,398.333 330.999,395.999 C331.333,395.999 331.666,395.999 332.0,395.999 C332.0,395.333 332.0,394.666 332.0,394.0 C332.333,394.0 332.666,394.0 333.0,394.0 C333.0,393.0 333.0,391.999 333.0,390.999 C333.333,390.999 333.666,390.999 333.999,390.999 C333.999,390.0 333.999,388.999 333.999,388.0 C334.333,388.0 334.666,388.0 334.999,388.0 C334.999,387.0 334.999,385.999 334.999,385.0 C335.333,385.0 335.666,385.0 336.0,385.0 C336.0,384.0 336.0,382.999 336.0,381.999 C336.333,381.999 336.666,381.999 337.0,381.999 C337.0,381.0 337.0,379.999 337.0,379.0 C337.333,379.0 337.666,379.0 337.999,379.0 C337.999,378.0 337.999,376.999 337.999,375.999 C338.333,375.999 338.666,375.999 338.999,375.999 C338.999,375.0 338.999,373.999 338.999,372.999 C339.333,372.999 339.666,372.999 340.0,372.999 C340.0,372.333 340.0,371.666 340.0,371.0 C340.333,371.0 340.666,371.0 340.999,371.0 C341.333,369.0 341.666,366.999 341.999,365.0 C342.333,365.0 342.666,365.0 343.0,365.0 C343.0,363.666 343.0,362.333 343.0,361.0 C343.333,361.0 343.666,361.0 344.0,361.0 C344.0,360.333 344.0,359.666 344.0,358.999 C344.333,358.999 344.666,358.999 344.999,358.999 C345.666,356.0 346.333,352.999 347.0,350.0 C347.333,350.0 347.666,350.0 347.999,350.0 C347.999,349.333 347.999,348.666 347.999,347.999 C348.333,347.999 348.666,347.999 348.999,347.999 C349.333,345.666 349.666,343.333 350.0,341.0 C350.333,341.0 350.666,341.0 351.0,341.0 C351.0,340.333 351.0,339.666 351.0,338.999 C351.333,338.999 351.666,338.999 351.999,338.999 C352.666,336.0 353.333,332.999 354.0,329.999 C354.333,329.999 354.666,329.999 354.999,329.999 C354.999,329.0 354.999,327.999 354.999,327.0 C355.333,327.0 355.666,327.0 355.999,327.0 C355.999,326.0 355.999,324.999 355.999,324.0 C356.333,324.0 356.666,324.0 357.0,324.0 C357.0,323.0 357.0,321.999 357.0,320.999 C357.333,320.999 357.666,320.999 358.0,320.999 C358.0,320.0 358.0,318.999 358.0,318.0 C358.333,318.0 358.666,318.0 358.999,318.0 C358.999,317.333 358.999,316.666 358.999,315.999 C359.333,315.999 359.666,315.999 359.999,315.999 C359.999,315.0 359.999,313.999 359.999,313.0 C360.333,313.0 360.666,313.0 361.0,313.0 C361.333,310.666 361.666,308.333 362.0,305.999 C362.333,305.999 362.666,305.999 362.999,305.999 C362.999,305.333 362.999,304.666 362.999,304.0 C363.333,304.0 363.666,304.0 363.999,304.0 C364.333,302.0 364.666,299.999 365.0,297.999 C365.333,297.999 365.666,297.999 365.999,297.999 C365.999,297.0 365.999,295.999 365.999,295.0 C366.333,295.0 366.666,295.0 366.999,295.0 C366.999,294.0 366.999,292.999 366.999,291.999 C367.333,291.999 367.666,291.999 368.0,291.999 C368.0,291.0 368.0,289.999 368.0,289.0 C368.333,289.0 368.666,289.0 369.0,289.0 C369.0,288.0 369.0,286.999 369.0,286.0 C369.333,286.0 369.666,286.0 369.999,286.0 C369.999,285.0 369.999,283.999 369.999,282.999 C370.333,282.999 370.666,282.999 370.999,282.999 C370.999,282.333 370.999,281.666 370.999,281.0 C371.333,281.0 371.666,281.0 372.0,281.0 C372.333,279.0 372.666,276.999 372.999,275.0 C373.333,275.0 373.666,275.0 373.999,275.0 C373.999,274.0 373.999,272.999 373.999,272.0 C374.333,272.0 374.666,272.0 375.0,272.0 C375.0,271.0 375.0,269.999 375.0,268.999 C375.333,268.999 375.666,268.999 376.0,268.999 C376.0,268.0 376.0,266.999 376.0,266.0 C376.333,266.0 376.666,266.0 376.999,266.0 C376.999,265.0 376.999,263.999 376.999,262.999 C377.333,262.999 377.666,262.999 377.999,262.999 C377.999,262.333 377.999,261.666 377.999,261.0 C378.333,261.0 378.666,261.0 379.0,261.0 C379.0,259.666 379.0,258.333 379.0,257.0 C379.333,257.0 379.666,257.0 380.0,257.0 C380.0,256.0 380.0,254.999 380.0,253.999 C380.333,253.999 380.666,253.999 380.999,253.999 C380.999,253.333 380.999,252.666 380.999,252.0 C381.333,252.0 381.666,252.0 382.0,252.0 C382.0,251.0 382.0,249.999 382.0,248.999 C382.333,248.999 382.666,248.999 383.0,248.999 C383.0,248.0 383.0,246.999 383.0,245.999 C383.333,245.999 383.666,245.999 383.999,245.999 C383.999,245.0 383.999,243.999 383.999,243.0 C384.333,243.0 384.666,243.0 384.999,243.0 C384.999,242.0 384.999,240.999 384.999,239.999 C385.333,239.999 385.666,239.999 386.0,239.999 C386.0,239.0 386.0,237.999 386.0,236.999 C386.333,236.999 386.666,236.999 387.0,236.999 C387.0,236.0 387.0,234.999 387.0,234.0 C387.333,234.0 387.666,234.0 387.999,234.0 C387.999,233.0 387.999,231.999 387.999,230.999 C388.333,230.999 388.666,230.999 388.999,230.999 C388.999,230.0 388.999,228.999 388.999,228.0 C389.333,228.0 389.666,228.0 390.0,228.0 C390.0,227.333 390.0,226.666 390.0,225.999 C390.333,225.999 390.666,225.999 390.999,225.999 C390.999,224.666 390.999,223.333 390.999,221.999 C391.333,221.999 391.666,221.999 391.999,221.999 C391.999,221.333 391.999,220.666 391.999,220.0 C392.333,220.0 392.666,220.0 393.0,220.0 C393.0,219.0 393.0,217.999 393.0,216.999 C393.333,216.999 393.666,216.999 394.0,216.999 C394.0,216.0 394.0,214.999 394.0,214.0 C394.333,214.0 394.666,214.0 394.999,214.0 C394.999,213.0 394.999,211.999 394.999,210.999 C395.333,210.999 395.666,210.999 395.999,210.999 C395.999,210.0 395.999,208.999 395.999,207.999 C396.333,207.999 396.666,207.999 397.0,207.999 C397.0,207.0 397.0,205.999 397.0,205.0 C397.333,205.0 397.666,205.0 398.0,205.0 C398.333,203.0 398.666,200.999 398.999,198.999 C399.333,198.999 399.666,198.999 400.0,198.999 C400.0,198.333 400.0,197.666 400.0,196.999 C400.333,196.999 400.666,196.999 401.0,196.999 C401.333,195.0 401.666,192.999 401.999,191.0 C402.333,191.0 402.666,191.0 402.999,191.0 C402.999,189.666 402.999,188.333 402.999,187.0 C403.333,187.0 403.666,187.0 404.0,187.0 C404.0,186.333 404.0,185.666 404.0,184.999 C404.333,184.999 404.666,184.999 405.0,184.999 C405.666,182.0 406.333,178.999 407.0,175.999 C407.333,175.999 407.666,175.999 408.0,175.999 C408.0,175.333 408.0,174.666 408.0,173.999 C408.333,173.999 408.666,173.999 408.999,173.999 C409.666,170.666 410.333,167.332 411.0,163.999 C411.333,163.999 411.666,163.999 412.0,163.999 C412.0,163.333 412.0,162.666 412.0,162.0 C412.333,162.0 412.666,162.0 412.999,162.0 C413.666,159.0 414.333,155.999 415.0,153.0 C415.333,153.0 415.666,153.0 415.999,153.0 C415.999,152.0 415.999,150.999 415.999,149.999 C416.333,149.999 416.666,149.999 416.999,149.999 C416.999,149.0 416.999,147.999 416.999,146.999 C417.333,146.999 417.666,146.999 418.0,146.999 C418.0,146.0 418.0,144.999 418.0,144.0 C418.333,144.0 418.666,144.0 419.0,144.0 C419.0,143.333 419.0,142.666 419.0,141.999 C419.333,141.999 419.666,141.999 419.999,141.999 C419.999,141.0 419.999,139.999 419.999,139.0 C420.333,139.0 420.666,139.0 420.999,139.0 C421.333,136.666 421.666,134.333 422.0,131.999 C422.333,131.999 422.666,131.999 423.0,131.999 C423.0,131.333 423.0,130.666 423.0,130.0 C423.333,130.0 423.666,130.0 423.999,130.0 C425.666,124.0 427.333,117.999 429.0,111.999 C429.333,111.999 429.666,111.999 430.0,111.999 C430.0,111.0 430.0,109.999 430.0,108.999 C430.333,108.999 430.666,108.999 430.999,108.999 C430.999,108.333 430.999,107.666 430.999,107.0 C431.333,107.0 431.666,107.0 432.0,107.0 C432.0,106.0 432.0,104.999 432.0,103.999 C432.333,103.999 432.666,103.999 433.0,103.999 C433.0,102.666 433.0,101.333 433.0,99.999 C433.333,99.999 433.666,99.999 433.999,99.999 C433.999,99.333 433.999,98.666 433.999,97.999 C434.333,97.999 434.666,97.999 434.999,97.999 C435.666,95.0 436.333,91.999 437.0,88.999 C437.333,88.999 437.666,88.999 437.999,88.999 C437.999,88.333 437.999,87.666 437.999,87.0 C438.333,87.0 438.666,87.0 438.999,87.0 C439.333,84.666 439.666,82.333 440.0,79.999 C440.333,79.999 440.666,79.999 441.0,79.999 C441.0,79.333 441.0,78.666 441.0,78.0 C441.333,78.0 441.666,78.0 441.999,78.0 C441.999,77.0 441.999,75.999 441.999,74.999 C442.333,74.999 442.666,74.999 443.0,74.999 C444.999,68.0 447.0,60.999 448.999,54.0 C449.333,54.0 449.666,54.0 450.0,54.0 C450.0,53.333 450.0,52.666 450.0,51.999 C450.333,51.999 450.666,51.999 451.0,51.999 C451.0,50.666 451.0,49.333 451.0,47.999 C451.333,47.999 451.666,47.999 451.999,47.999 C451.999,47.0 451.999,45.999 451.999,45.0 C452.333,45.0 452.666,45.0 452.999,45.0 C452.999,44.333 452.999,43.666 452.999,42.999 C453.333,42.999 453.666,42.999 454.0,42.999 C454.0,42.0 454.0,40.999 454.0,40.0 C454.333,40.0 454.666,40.0 455.0,40.0 C455.0,39.0 455.0,37.999 455.0,36.999 C455.333,36.999 455.666,36.999 455.999,36.999 C455.999,36.0 455.999,34.999 455.999,33.999 C456.333,33.999 456.666,33.999 457.0,33.999 C457.0,33.0 457.0,31.999 457.0,31.0 C457.333,31.0 457.666,31.0 458.0,31.0 C458.0,30.0 458.0,28.999 458.0,27.999 C458.333,27.999 458.666,27.999 458.999,27.999 C459.666,26.0 460.333,23.999 461.0,22.0 C461.333,22.0 461.666,22.0 462.0,22.0 C462.333,20.666 462.666,19.333 462.999,17.999 C463.999,17.333 465.0,16.666 466.0,15.999 C469.189,12.742 472.87,8.457 476.0,5.999 C477.333,5.666 478.666,5.333 480.0,4.999 C480.0,4.666 480.0,4.333 480.0,3.999 C480.999,3.999 482.0,3.999 483.0,3.999 C483.0,3.666 483.0,3.333 483.0,3.0 C485.333,2.666 487.666,2.333 490.0,1.999 C490.0,1.666 490.0,1.333 490.0,0.999 ZM491.999,3.0 C491.999,3.333 491.999,3.666 491.999,3.999 C490.333,3.999 488.666,3.999 487.0,3.999 C487.0,4.333 487.0,4.666 487.0,4.999 C486.0,4.999 484.999,4.999 484.0,4.999 C484.0,5.333 484.0,5.666 484.0,5.999 C483.0,5.999 481.999,5.999 480.999,5.999 C480.999,6.333 480.999,6.666 480.999,7.0 C479.666,7.333 478.333,7.666 476.999,7.999 C476.666,8.666 476.333,9.333 476.0,9.999 C475.333,9.999 474.666,9.999 473.999,9.999 C473.333,10.999 472.666,12.0 472.0,12.999 C471.0,13.333 469.999,13.666 469.0,13.999 C468.666,14.999 468.333,16.0 468.0,17.0 C467.0,17.666 465.999,18.333 465.0,18.999 C465.0,19.666 465.0,20.333 465.0,21.0 C464.333,21.333 463.666,21.666 462.999,22.0 C462.999,22.999 462.999,24.0 462.999,24.999 C462.666,24.999 462.333,24.999 462.0,24.999 C461.666,26.333 461.333,27.666 461.0,28.999 C460.666,28.999 460.333,28.999 459.999,28.999 C459.666,30.999 459.333,33.0 458.999,34.999 C458.666,34.999 458.333,34.999 458.0,34.999 C458.0,35.666 458.0,36.333 458.0,36.999 C457.666,36.999 457.333,36.999 457.0,36.999 C457.0,38.333 457.0,39.666 457.0,41.0 C456.666,41.0 456.333,41.0 455.999,41.0 C455.999,41.999 455.999,43.0 455.999,43.999 C455.666,43.999 455.333,43.999 455.0,43.999 C455.0,44.666 455.0,45.333 455.0,45.999 C454.666,45.999 454.333,45.999 454.0,45.999 C453.666,47.999 453.333,50.0 452.999,51.999 C452.666,51.999 452.333,51.999 451.999,51.999 C451.999,52.999 451.999,54.0 451.999,55.0 C451.666,55.0 451.333,55.0 451.0,55.0 C451.0,55.999 451.0,57.0 451.0,57.999 C450.666,57.999 450.333,57.999 450.0,57.999 C450.0,58.999 450.0,60.0 450.0,60.999 C449.666,60.999 449.333,60.999 448.999,60.999 C448.999,61.999 448.999,63.0 448.999,64.0 C439.701,87.148 432.288,112.877 423.0,135.999 C423.0,136.999 423.0,138.0 423.0,139.0 C422.666,139.0 422.333,139.0 422.0,139.0 C422.0,139.999 422.0,141.0 422.0,141.999 C421.666,141.999 421.333,141.999 420.999,141.999 C420.999,142.999 420.999,144.0 420.999,144.999 C420.666,144.999 420.333,144.999 419.999,144.999 C419.999,145.999 419.999,147.0 419.999,148.0 C419.666,148.0 419.333,148.0 419.0,148.0 C418.666,149.999 418.333,152.0 418.0,154.0 C417.666,154.0 417.333,154.0 416.999,154.0 C416.999,154.666 416.999,155.333 416.999,155.999 C416.666,155.999 416.333,155.999 415.999,155.999 C415.999,156.999 415.999,158.0 415.999,158.999 C415.666,158.999 415.333,158.999 415.0,158.999 C414.666,161.333 414.333,163.666 413.999,165.999 C403.414,190.384 396.566,218.605 386.0,243.0 C385.666,245.333 385.333,247.666 384.999,249.999 C384.666,249.999 384.333,249.999 383.999,249.999 C383.999,250.666 383.999,251.333 383.999,252.0 C383.666,252.0 383.333,252.0 383.0,252.0 C383.0,252.999 383.0,254.0 383.0,254.999 C382.666,254.999 382.333,254.999 382.0,254.999 C382.0,255.999 382.0,257.0 382.0,258.0 C381.666,258.0 381.333,258.0 380.999,258.0 C380.999,258.999 380.999,260.0 380.999,261.0 C380.666,261.0 380.333,261.0 380.0,261.0 C380.0,261.999 380.0,263.0 380.0,263.999 C379.666,263.999 379.333,263.999 379.0,263.999 C379.0,264.999 379.0,266.0 379.0,267.0 C378.666,267.0 378.333,267.0 377.999,267.0 C377.999,267.999 377.999,269.0 377.999,269.999 C377.666,269.999 377.333,269.999 376.999,269.999 C376.999,270.999 376.999,272.0 376.999,272.999 C376.666,272.999 376.333,272.999 376.0,272.999 C376.0,273.999 376.0,275.0 376.0,276.0 C375.666,276.0 375.333,276.0 375.0,276.0 C375.0,276.666 375.0,277.333 375.0,277.999 C374.666,277.999 374.333,277.999 373.999,277.999 C373.999,278.999 373.999,280.0 373.999,281.0 C373.666,281.0 373.333,281.0 372.999,281.0 C372.999,282.333 372.999,283.666 372.999,285.0 C372.666,285.0 372.333,285.0 372.0,285.0 C372.0,285.666 372.0,286.333 372.0,286.999 C371.666,286.999 371.333,286.999 370.999,286.999 C370.666,288.999 370.333,291.0 369.999,292.999 C369.666,292.999 369.333,292.999 369.0,292.999 C369.0,293.999 369.0,295.0 369.0,295.999 C368.666,295.999 368.333,295.999 368.0,295.999 C368.0,296.999 368.0,298.0 368.0,299.0 C367.666,299.0 367.333,299.0 366.999,299.0 C366.999,299.999 366.999,301.0 366.999,301.999 C366.666,301.999 366.333,301.999 365.999,301.999 C365.999,302.999 365.999,304.0 365.999,305.0 C365.666,305.0 365.333,305.0 365.0,305.0 C365.0,305.666 365.0,306.333 365.0,306.999 C364.666,306.999 364.333,306.999 363.999,306.999 C363.333,309.999 362.666,313.0 362.0,315.999 C361.666,315.999 361.333,315.999 361.0,315.999 C361.0,316.999 361.0,318.0 361.0,319.0 C360.666,319.0 360.333,319.0 359.999,319.0 C359.999,319.999 359.999,321.0 359.999,322.0 C359.666,322.0 359.333,322.0 358.999,322.0 C358.999,322.999 358.999,324.0 358.999,324.999 C358.666,324.999 358.333,324.999 358.0,324.999 C358.0,325.999 358.0,327.0 358.0,328.0 C357.666,328.0 357.333,328.0 357.0,328.0 C357.0,328.666 357.0,329.333 357.0,329.999 C356.666,329.999 356.333,329.999 355.999,329.999 C355.999,330.999 355.999,332.0 355.999,333.0 C355.666,333.0 355.333,333.0 354.999,333.0 C354.666,335.333 354.333,337.666 354.0,339.999 C353.666,339.999 353.333,339.999 352.999,339.999 C352.999,340.666 352.999,341.333 352.999,342.0 C352.666,342.0 352.333,342.0 351.999,342.0 C351.666,343.999 351.333,346.0 351.0,347.999 C350.666,347.999 350.333,347.999 350.0,347.999 C350.0,348.999 350.0,350.0 350.0,351.0 C349.666,351.0 349.333,351.0 348.999,351.0 C348.999,351.999 348.999,353.0 348.999,353.999 C348.666,353.999 348.333,353.999 347.999,353.999 C347.999,354.999 347.999,356.0 347.999,357.0 C347.666,357.0 347.333,357.0 347.0,357.0 C347.0,357.999 347.0,359.0 347.0,360.0 C346.666,360.0 346.333,360.0 345.999,360.0 C345.999,360.666 345.999,361.333 345.999,361.999 C345.666,361.999 345.333,361.999 344.999,361.999 C344.999,362.999 344.999,364.0 344.999,365.0 C344.666,365.0 344.333,365.0 344.0,365.0 C343.666,367.333 343.333,369.666 343.0,371.999 C342.666,371.999 342.333,371.999 341.999,371.999 C341.999,372.666 341.999,373.333 341.999,374.0 C341.666,374.0 341.333,374.0 340.999,374.0 C340.333,376.999 339.666,380.0 338.999,383.0 C338.666,383.0 338.333,383.0 337.999,383.0 C337.999,383.666 337.999,384.333 337.999,385.0 C337.666,385.0 337.333,385.0 337.0,385.0 C337.0,386.333 337.0,387.666 337.0,389.0 C336.666,389.0 336.333,389.0 336.0,389.0 C335.666,390.999 335.333,393.0 334.999,394.999 C334.666,394.999 334.333,394.999 333.999,394.999 C333.999,395.666 333.999,396.333 333.999,397.0 C333.666,397.0 333.333,397.0 333.0,397.0 C333.0,397.999 333.0,399.0 333.0,399.999 C332.666,399.999 332.333,399.999 332.0,399.999 C332.0,400.999 332.0,402.0 332.0,403.0 C331.666,403.0 331.333,403.0 330.999,403.0 C330.999,403.999 330.999,405.0 330.999,405.999 C330.666,405.999 330.333,405.999 329.999,405.999 C329.999,406.999 329.999,408.0 329.999,409.0 C329.666,409.0 329.333,409.0 329.0,409.0 C329.0,409.999 329.0,411.0 329.0,412.0 C328.666,412.0 328.333,412.0 327.999,412.0 C327.999,412.999 327.999,414.0 327.999,414.999 C327.666,414.999 327.333,414.999 326.999,414.999 C326.999,415.999 326.999,417.0 326.999,418.0 C326.666,418.0 326.333,418.0 326.0,418.0 C326.0,418.666 326.0,419.333 326.0,419.999 C325.666,419.999 325.333,419.999 325.0,419.999 C324.666,422.333 324.333,424.666 323.999,427.0 C316.620,444.3 311.400,464.6 304.0,480.999 C303.333,483.999 302.666,487.0 301.999,489.999 C301.666,489.999 301.333,489.999 301.0,489.999 C301.0,490.999 301.0,492.0 301.0,493.0 C300.666,493.0 300.333,493.0 300.0,493.0 C300.0,493.999 300.0,495.0 300.0,496.0 C299.666,496.0 299.333,496.0 298.999,496.0 C298.999,496.999 298.999,498.0 298.999,498.999 C298.666,498.999 298.333,498.999 297.999,498.999 C297.999,499.999 297.999,501.0 297.999,502.0 C297.666,502.0 297.333,502.0 297.0,502.0 C297.0,502.666 297.0,503.333 297.0,503.999 C296.666,503.999 296.333,503.999 295.999,503.999 C295.999,504.999 295.999,506.0 295.999,507.0 C295.666,507.0 295.333,507.0 294.999,507.0 C294.666,509.333 294.333,511.666 294.0,513.999 C293.666,513.999 293.333,513.999 293.0,513.999 C293.0,514.666 293.0,515.333 293.0,516.0 C292.666,516.0 292.333,516.0 291.999,516.0 C291.999,516.999 291.999,518.0 291.999,518.999 C291.666,518.999 291.333,518.999 290.999,518.999 C290.999,519.999 290.999,521.0 290.999,522.0 C290.666,522.0 290.333,522.0 290.0,522.0 C290.0,522.999 290.0,524.0 290.0,525.0 C289.666,525.0 289.333,525.0 289.0,525.0 C289.0,525.999 289.0,527.0 289.0,527.999 C288.666,527.999 288.333,527.999 287.999,527.999 C287.999,528.999 287.999,530.0 287.999,531.0 C287.666,531.0 287.333,531.0 286.999,531.0 C286.666,532.999 286.333,535.0 286.0,536.999 C285.666,536.999 285.333,536.999 284.999,536.999 C284.999,537.666 284.999,538.333 284.999,539.0 C284.666,539.0 284.333,539.0 283.999,539.0 C283.666,541.333 283.333,543.666 283.0,545.999 C282.666,545.999 282.333,545.999 282.0,545.999 C282.0,546.666 282.0,547.333 282.0,548.0 C281.666,548.0 281.333,548.0 280.999,548.0 C280.999,548.999 280.999,550.0 280.999,550.999 C280.666,550.999 280.333,550.999 279.999,550.999 C279.999,551.999 279.999,553.0 279.999,554.0 C279.666,554.0 279.333,554.0 279.0,554.0 C279.0,554.999 279.0,556.0 279.0,557.0 C278.666,557.0 278.333,557.0 277.999,557.0 C277.999,557.666 277.999,558.333 277.999,559.0 C277.666,559.0 277.333,559.0 276.999,559.0 C276.666,561.333 276.333,563.666 276.0,565.999 C275.666,565.999 275.333,565.999 275.0,565.999 C275.0,566.999 275.0,568.0 275.0,569.0 C274.666,569.0 274.333,569.0 273.999,569.0 C273.999,569.666 273.999,570.333 273.999,571.0 C273.666,571.0 273.333,571.0 272.999,571.0 C271.333,576.999 269.666,583.0 268.0,588.999 C267.666,588.999 267.333,588.999 266.999,588.999 C266.666,592.999 266.333,597.0 265.999,601.0 C266.333,601.0 266.666,601.0 266.999,601.0 C267.333,604.666 267.666,608.333 268.0,611.999 C272.709,624.128 281.744,633.437 294.0,638.0 C295.666,638.0 297.333,638.0 298.999,638.0 C298.999,638.333 298.999,638.666 298.999,639.0 C306.630,641.213 318.220,636.133 322.0,634.0 C322.666,634.0 323.333,634.0 323.999,634.0 C324.666,633.0 325.333,631.999 326.0,630.999 C326.666,630.999 327.333,630.999 327.999,630.999 C328.999,629.666 330.0,628.333 330.999,626.999 C331.666,626.666 332.333,626.333 333.0,626.0 C333.0,625.333 333.0,624.666 333.0,624.0 C333.999,623.333 335.0,622.666 336.0,621.999 C336.0,621.333 336.0,620.666 336.0,620.0 C336.333,620.0 336.666,620.0 337.0,620.0 C337.666,618.0 338.333,615.999 338.999,614.0 C339.333,614.0 339.666,614.0 340.0,614.0 C340.0,613.0 340.0,611.999 340.0,611.0 C340.333,611.0 340.666,611.0 340.999,611.0 C340.999,610.0 340.999,608.999 340.999,607.999 C341.333,607.999 341.666,607.999 341.999,607.999 C341.999,607.333 341.999,606.666 341.999,606.0 C342.333,606.0 342.666,606.0 343.0,606.0 C343.666,602.667 344.333,599.333 344.999,596.0 C345.333,596.0 345.666,596.0 345.999,596.0 C345.999,595.333 345.999,594.666 345.999,593.999 C346.333,593.999 346.666,593.999 347.0,593.999 C348.666,588.0 350.333,581.999 351.999,576.0 C352.333,576.0 352.666,576.0 352.999,576.0 C352.999,575.333 352.999,574.666 352.999,574.0 C353.333,574.0 353.666,574.0 354.0,574.0 C354.666,570.666 355.333,567.333 355.999,564.0 C356.333,564.0 356.666,564.0 357.0,564.0 C357.0,563.333 357.0,562.666 357.0,562.0 C357.333,562.0 357.666,562.0 358.0,562.0 C358.666,559.0 359.333,555.999 359.999,553.0 C360.333,553.0 360.666,553.0 361.0,553.0 C361.0,552.0 361.0,550.999 361.0,550.0 C361.333,550.0 361.666,550.0 362.0,550.0 C362.0,549.0 362.0,547.999 362.0,546.999 C362.333,546.999 362.666,546.999 362.999,546.999 C362.999,546.0 362.999,544.999 362.999,544.0 C363.333,544.0 363.666,544.0 363.999,544.0 C363.999,543.0 363.999,541.999 363.999,541.0 C364.333,541.0 364.666,541.0 365.0,541.0 C365.0,540.333 365.0,539.666 365.0,539.0 C365.333,539.0 365.666,539.0 365.999,539.0 C366.333,537.0 366.666,534.999 366.999,532.999 C367.333,532.999 367.666,532.999 368.0,532.999 C368.0,532.0 368.0,530.999 368.0,530.0 C368.333,530.0 368.666,530.0 369.0,530.0 C369.0,529.0 369.0,527.999 369.0,526.999 C369.333,526.999 369.666,526.999 369.999,526.999 C369.999,526.0 369.999,524.999 369.999,524.0 C370.333,524.0 370.666,524.0 370.999,524.0 C370.999,523.0 370.999,521.999 370.999,521.0 C371.333,521.0 371.666,521.0 372.0,521.0 C372.0,520.333 372.0,519.666 372.0,518.999 C372.333,518.999 372.666,518.999 372.999,518.999 C373.333,516.666 373.666,514.333 373.999,512.0 C381.794,494.24 387.190,472.924 394.999,455.0 C394.999,454.0 394.999,452.999 394.999,451.999 C395.333,451.999 395.666,451.999 395.999,451.999 C395.999,451.0 395.999,449.999 395.999,449.0 C396.333,449.0 396.666,449.0 397.0,449.0 C397.0,447.666 397.0,446.333 397.0,445.0 C397.333,445.0 397.666,445.0 398.0,445.0 C398.0,444.333 398.0,443.666 398.0,442.999 C398.333,442.999 398.666,442.999 398.999,442.999 C398.999,442.0 398.999,440.999 398.999,440.0 C399.333,440.0 399.666,440.0 400.0,440.0 C400.333,438.0 400.666,435.999 401.0,433.999 C401.333,433.999 401.666,433.999 401.999,433.999 C401.999,433.333 401.999,432.666 401.999,432.0 C402.333,432.0 402.666,432.0 402.999,432.0 C403.666,428.667 404.333,425.333 405.0,422.0 C412.831,404.82 418.221,382.958 426.0,365.0 C426.333,362.666 426.666,360.333 426.999,357.999 C439.936,325.812 450.163,290.217 462.999,258.0 C463.666,254.666 464.333,251.333 465.0,248.0 C472.841,230.54 478.225,208.965 486.0,191.0 C486.333,188.666 486.666,186.333 487.0,183.999 C487.333,183.999 487.666,183.999 487.999,183.999 C487.999,183.333 487.999,182.666 487.999,182.0 C488.333,182.0 488.666,182.0 488.999,182.0 C490.666,176.0 492.333,169.999 494.0,163.999 C494.333,163.999 494.666,163.999 494.999,163.999 C494.999,163.0 494.999,161.999 494.999,160.999 C495.333,160.999 495.666,160.999 495.999,160.999 C495.999,160.333 495.999,159.666 495.999,158.999 C496.333,158.999 496.666,158.999 497.0,158.999 C497.0,158.0 497.0,156.999 497.0,155.999 C497.333,155.999 497.666,155.999 498.0,155.999 C498.666,153.0 499.333,149.999 500.0,146.999 C500.333,146.999 500.666,146.999 501.0,146.999 C501.666,144.0 502.333,140.999 502.999,137.999 C503.333,137.999 503.666,137.999 504.0,137.999 C504.0,137.333 504.0,136.666 504.0,135.999 C504.333,135.999 504.666,135.999 505.0,135.999 C505.333,133.666 505.666,131.333 505.999,128.999 C506.333,128.999 506.666,128.999 506.999,128.999 C506.999,128.333 506.999,127.666 506.999,126.999 C507.333,126.999 507.666,126.999 508.0,126.999 C508.0,126.0 508.0,124.999 508.0,123.999 C508.333,123.999 508.666,123.999 509.0,123.999 C517.332,99.2 525.667,73.997 534.0,48.999 C535.866,42.586 532.423,33.571 530.999,29.999 C530.999,29.0 530.999,27.999 530.999,26.999 C524.962,13.230 512.2,3.44 491.999,3.0 ZM204.999,215.999 C203.597,221.195 196.473,225.425 193.0,229.0 C193.0,229.333 193.0,229.666 193.0,229.999 C192.333,230.333 191.666,230.666 190.999,230.999 C190.999,231.666 190.999,232.333 190.999,233.0 C189.666,233.666 188.333,234.333 186.999,234.999 C186.999,235.666 186.999,236.333 186.999,236.999 C183.333,240.332 179.666,243.667 175.999,247.0 C175.0,248.666 173.999,250.333 172.999,252.0 C172.333,252.0 171.666,252.0 170.999,252.0 C170.999,252.333 170.999,252.666 170.999,253.0 C170.333,253.333 169.666,253.666 168.999,253.999 C168.999,254.666 168.999,255.333 168.999,256.0 C168.333,256.333 167.666,256.666 166.999,257.0 C164.333,259.999 161.666,263.0 158.999,266.0 C158.0,266.666 156.999,267.333 155.999,267.999 C155.999,268.666 155.999,269.333 155.999,269.999 C155.333,269.999 154.666,269.999 154.0,269.999 C149.750,277.922 141.795,282.601 136.0,289.0 C135.666,289.999 135.333,291.0 134.999,291.999 C132.666,293.999 130.333,296.0 127.999,297.999 C125.666,300.666 123.333,303.333 121.0,305.999 C120.0,306.666 118.999,307.333 118.0,308.0 C118.0,308.666 118.0,309.333 118.0,309.999 C116.0,311.666 113.999,313.333 111.999,314.999 C109.666,317.666 107.333,320.333 104.999,323.0 C103.666,323.999 102.333,325.0 100.999,325.999 C100.999,326.666 100.999,327.333 100.999,328.0 C100.333,328.333 99.666,328.666 98.999,328.999 C98.999,329.333 98.999,329.666 98.999,329.999 C98.333,329.999 97.666,329.999 96.999,329.999 C96.999,330.666 96.999,331.333 96.999,332.0 C98.999,333.666 101.0,335.333 102.999,337.0 C103.333,337.999 103.666,339.0 103.999,339.999 C109.666,345.332 115.333,350.667 121.0,356.0 C121.0,356.666 121.0,357.333 121.0,357.999 C126.999,363.666 133.0,369.333 139.0,375.0 C139.0,375.666 139.0,376.333 139.0,376.999 C143.666,381.332 148.333,385.667 152.999,390.0 C155.225,392.243 155.437,394.938 158.999,395.999 C158.999,396.666 158.999,397.333 158.999,398.0 C161.897,399.630 173.148,410.757 173.999,413.999 C174.666,413.999 175.333,413.999 175.999,413.999 C175.999,414.666 175.999,415.333 175.999,416.0 C181.666,421.332 187.333,426.667 193.0,432.0 C193.0,432.666 193.0,433.333 193.0,433.999 C193.333,433.999 193.666,433.999 193.999,433.999 C194.666,434.999 195.333,436.0 195.999,437.0 C200.999,441.666 206.0,446.333 211.0,451.0 C211.0,451.666 211.0,452.333 211.0,452.999 C211.666,453.333 212.333,453.666 212.999,454.0 C214.666,455.999 216.333,458.0 218.0,460.0 C221.666,463.333 225.333,466.667 229.0,470.0 C229.0,470.666 229.0,471.333 229.0,471.999 C230.666,473.333 232.333,474.666 233.999,475.999 C239.365,481.374 245.234,488.224 247.999,496.0 C247.999,497.333 247.999,498.666 247.999,499.999 C248.333,499.999 248.666,499.999 248.999,499.999 C248.999,501.666 248.999,503.333 248.999,504.999 C249.333,504.999 249.666,504.999 250.0,504.999 C251.330,509.631 248.250,525.154 247.0,527.999 C246.666,527.999 246.333,527.999 245.999,527.999 C245.999,528.666 245.999,529.333 245.999,530.0 C245.666,530.0 245.333,530.0 244.999,530.0 C244.999,530.666 244.999,531.333 244.999,531.999 C244.666,531.999 244.333,531.999 243.999,531.999 C243.666,532.999 243.333,534.0 243.0,535.0 C242.333,535.333 241.666,535.666 240.999,536.0 C240.999,536.666 240.999,537.333 240.999,538.0 C239.666,538.999 238.333,540.0 236.999,541.0 C236.0,542.333 234.999,543.666 233.999,545.0 C233.333,545.0 232.666,545.0 232.0,545.0 C231.666,545.666 231.333,546.333 230.999,546.999 C229.666,547.333 228.333,547.666 226.999,548.0 C226.999,548.333 226.999,548.666 226.999,549.0 C225.666,549.333 224.333,549.666 222.999,550.0 C222.999,550.333 222.999,550.666 222.999,550.999 C222.0,550.999 220.999,550.999 219.999,550.999 C219.999,551.333 219.999,551.666 219.999,551.999 C217.666,551.999 215.333,551.999 212.999,551.999 C212.999,552.333 212.999,552.666 212.999,553.0 C210.666,553.0 208.333,553.0 205.999,553.0 C205.999,552.666 205.999,552.333 205.999,551.999 C204.0,551.999 201.999,551.999 200.0,551.999 C200.0,551.666 200.0,551.333 200.0,550.999 C199.0,550.999 197.999,550.999 197.0,550.999 C197.0,550.666 197.0,550.333 197.0,550.0 C196.0,550.0 194.999,550.0 193.999,550.0 C193.999,549.666 193.999,549.333 193.999,549.0 C193.333,549.0 192.666,549.0 191.999,549.0 C191.666,548.333 191.333,547.666 190.999,546.999 C189.666,546.666 188.333,546.333 186.999,545.999 C186.333,545.0 185.666,543.999 184.999,543.0 C182.333,540.666 179.666,538.333 176.999,536.0 C174.666,533.333 172.333,530.666 169.999,527.999 C169.0,527.333 167.999,526.666 166.999,526.0 C166.999,525.333 166.999,524.666 166.999,524.0 C166.333,523.666 165.666,523.333 164.999,522.999 C164.999,522.666 164.999,522.333 164.999,522.0 C164.333,522.0 163.666,522.0 162.999,522.0 C162.999,521.333 162.999,520.666 162.999,520.0 C158.667,516.0 154.332,511.999 150.0,508.0 C150.0,507.333 150.0,506.666 150.0,506.0 C149.666,506.0 149.333,506.0 148.999,506.0 C147.624,504.517 148.488,504.693 146.0,503.999 C146.0,503.333 146.0,502.666 146.0,502.0 C141.333,497.667 136.666,493.332 132.0,489.0 C132.0,488.333 132.0,487.666 132.0,487.0 C130.666,486.333 129.333,485.666 127.999,484.999 C127.999,484.333 127.999,483.666 127.999,483.0 C127.666,483.0 127.333,483.0 126.999,483.0 C126.0,481.666 124.999,480.333 123.999,479.0 C120.717,475.707 115.361,473.71 114.0,468.0 C113.333,468.0 112.666,468.0 111.999,468.0 C111.666,467.0 111.333,465.999 111.0,465.0 C110.0,464.333 108.999,463.666 107.999,463.0 C105.666,460.333 103.333,457.666 100.999,455.0 C98.666,453.0 96.333,450.999 93.999,449.0 C93.999,448.333 93.999,447.666 93.999,446.999 C93.0,446.333 91.999,445.666 90.999,445.0 C89.0,442.666 86.999,440.333 84.999,437.999 C82.333,435.666 79.666,433.333 76.999,431.0 C76.999,430.333 76.999,429.666 76.999,428.999 C74.0,426.333 70.999,423.666 68.0,421.0 C66.333,419.0 64.666,416.999 62.999,414.999 C62.0,414.333 60.999,413.666 59.999,413.0 C57.997,410.247 58.863,409.62 54.999,408.0 C54.999,407.333 54.999,406.666 54.999,405.999 C50.667,402.0 46.332,397.999 41.999,394.0 C41.999,393.333 41.999,392.666 41.999,391.999 C41.666,391.999 41.333,391.999 40.999,391.999 C39.624,390.517 40.488,390.693 37.999,390.0 C37.999,389.333 37.999,388.666 37.999,388.0 C33.667,384.0 29.332,379.999 25.0,375.999 C22.806,373.618 25.77,373.211 21.0,371.999 C21.0,371.333 21.0,370.666 21.0,370.0 C18.322,368.471 17.77,366.77 14.999,363.999 C13.0,362.333 10.999,360.666 8.999,358.999 C8.999,358.333 8.999,357.666 8.999,357.0 C8.333,356.666 7.666,356.333 7.0,356.0 C6.666,354.666 6.333,353.333 5.999,352.0 C5.666,352.0 5.333,352.0 4.999,352.0 C4.333,350.0 3.666,347.999 3.0,346.0 C2.666,346.0 2.333,346.0 1.999,346.0 C1.999,345.0 1.999,343.999 1.999,342.999 C-1.200,334.346 0.72,324.676 3.0,316.999 C3.999,314.0 5.0,310.999 5.999,308.0 C13.665,299.667 21.334,291.332 28.999,282.999 C31.333,281.0 33.666,278.999 35.999,276.999 C35.999,276.333 35.999,275.666 35.999,275.0 C41.332,270.0 46.667,264.999 51.999,259.999 C51.999,259.666 51.999,259.333 51.999,258.999 C52.666,258.666 53.333,258.333 53.999,258.0 C53.999,257.333 53.999,256.666 53.999,256.0 C59.999,250.333 66.0,244.666 71.999,239.0 C71.999,238.333 71.999,237.666 71.999,236.999 C77.999,231.333 84.0,225.666 89.999,220.0 C89.999,219.333 89.999,218.666 89.999,217.999 C95.999,212.333 102.0,206.666 107.999,201.0 C107.999,200.333 107.999,199.666 107.999,198.999 C113.999,193.333 120.0,187.666 125.999,182.0 C125.999,181.333 125.999,180.666 125.999,179.999 C132.332,174.0 138.667,167.999 144.999,162.0 C144.999,161.333 144.999,160.666 144.999,159.999 C150.666,154.667 156.333,149.332 161.999,144.0 C161.999,143.333 161.999,142.666 161.999,141.999 C165.999,138.333 170.0,134.666 173.999,130.999 C175.333,129.333 176.666,127.666 177.999,125.999 C178.666,125.666 179.333,125.333 179.999,125.0 C179.999,124.333 179.999,123.666 179.999,122.999 C180.333,122.999 180.666,122.999 180.999,122.999 C181.666,122.0 182.333,120.999 182.999,120.0 C183.666,120.0 184.333,120.0 184.999,120.0 C185.999,118.666 187.0,117.333 187.999,116.0 C188.666,116.0 189.333,116.0 190.0,116.0 C190.0,115.666 190.0,115.333 190.0,115.0 C191.999,114.333 194.0,113.666 195.999,112.999 C195.999,112.666 195.999,112.333 195.999,111.999 C196.999,111.999 198.0,111.999 198.999,111.999 C198.999,111.666 198.999,111.333 198.999,111.0 C200.333,111.0 201.666,111.0 202.999,111.0 C202.999,110.666 202.999,110.333 202.999,109.999 C208.999,110.333 215.0,110.666 220.999,111.0 C220.999,111.333 220.999,111.666 220.999,111.999 C221.666,111.999 222.333,111.999 222.999,111.999 C222.999,112.333 222.999,112.666 222.999,112.999 C223.999,112.999 225.0,112.999 225.999,112.999 C231.411,115.432 235.91,120.19 239.0,123.999 C239.999,124.666 241.0,125.333 241.999,125.999 C241.999,126.666 241.999,127.333 241.999,127.999 C242.666,128.333 243.333,128.666 243.999,128.999 C244.666,130.999 245.333,133.0 245.999,135.0 C246.333,135.0 246.666,135.0 247.0,135.0 C247.0,135.999 247.0,137.0 247.0,137.999 C248.471,141.720 251.964,151.316 250.0,158.0 C248.333,163.332 246.666,168.667 244.999,173.999 C244.333,174.333 243.666,174.666 243.0,174.999 C243.0,175.666 243.0,176.333 243.0,177.0 C242.333,177.333 241.666,177.666 240.999,177.999 C240.999,178.666 240.999,179.333 240.999,179.999 C238.333,182.333 235.666,184.666 233.0,187.0 C231.333,188.999 229.666,191.0 227.999,192.999 C227.0,193.666 225.999,194.333 225.0,195.0 C225.0,195.666 225.0,196.333 225.0,196.999 C222.666,198.999 220.333,201.0 218.0,202.999 C215.666,205.666 213.333,208.333 211.0,210.999 C210.0,211.666 208.999,212.333 207.999,212.999 C207.666,213.999 207.333,215.0 207.0,215.999 C206.333,215.999 205.666,215.999 204.999,215.999 ZM786.0,300.0 C786.666,300.0 787.333,300.0 788.0,300.0 C788.828,302.964 790.330,303.934 792.0,305.999 C792.333,305.999 792.666,305.999 792.999,305.999 C793.333,307.333 793.666,308.666 794.0,309.999 C794.333,309.999 794.666,309.999 795.0,309.999 C795.666,311.999 796.333,314.0 797.0,315.999 C797.333,315.999 797.666,315.999 798.0,315.999 C798.0,316.999 798.0,318.0 798.0,319.0 C798.333,319.0 798.666,319.0 799.0,319.0 C800.601,323.518 800.534,338.453 799.0,342.999 C798.666,342.999 798.333,342.999 798.0,342.999 C798.0,344.333 798.0,345.666 798.0,347.0 C797.666,347.0 797.333,347.0 797.0,347.0 C797.0,347.666 797.0,348.333 797.0,348.999 C796.666,348.999 796.333,348.999 796.0,348.999 C795.333,350.999 794.666,353.0 794.0,355.0 C793.333,355.333 792.666,355.666 792.0,356.0 C792.0,356.666 792.0,357.333 792.0,357.999 C791.333,358.333 790.666,358.666 790.0,358.999 C789.0,360.333 787.999,361.666 787.0,362.999 C785.333,364.333 783.666,365.666 781.999,366.999 C781.999,367.666 781.999,368.333 781.999,369.0 C780.666,369.999 779.333,371.0 778.0,371.999 C775.666,374.666 773.333,377.333 770.999,380.0 C768.666,381.999 766.333,384.0 763.999,385.999 C763.999,386.666 763.999,387.333 763.999,388.0 C758.667,392.999 753.332,398.0 748.0,403.0 C748.0,403.333 748.0,403.666 748.0,404.0 C747.333,404.333 746.666,404.666 745.999,404.999 C745.999,405.666 745.999,406.333 745.999,407.0 C740.0,412.666 733.999,418.333 727.999,423.999 C727.999,424.666 727.999,425.333 727.999,426.0 C722.0,431.666 715.999,437.333 709.999,442.999 C709.999,443.666 709.999,444.333 709.999,445.0 C704.0,450.666 697.999,456.333 692.0,461.999 C692.0,462.666 692.0,463.333 692.0,464.0 C686.0,469.666 679.999,475.333 674.0,480.999 C674.0,481.666 674.0,482.333 674.0,483.0 C668.0,488.666 661.999,494.333 656.0,499.999 C656.0,500.666 656.0,501.333 656.0,502.0 C652.333,505.333 648.666,508.667 645.0,512.0 C643.333,513.999 641.666,516.0 640.0,517.999 C639.333,518.333 638.666,518.666 638.0,518.999 C638.0,519.666 638.0,520.333 638.0,521.0 C633.667,524.999 629.332,529.0 624.999,532.999 C624.0,534.333 622.999,535.666 622.0,536.999 C621.333,537.333 620.666,537.666 620.0,538.0 C620.0,538.666 620.0,539.333 620.0,540.0 C615.333,543.333 610.666,546.667 605.999,550.0 C605.0,550.0 603.999,550.0 602.999,550.0 C602.999,550.333 602.999,550.666 602.999,550.999 C602.333,550.999 601.666,550.999 601.0,550.999 C601.0,551.333 601.0,551.666 601.0,551.999 C598.666,551.999 596.333,551.999 594.0,551.999 C594.0,552.333 594.0,552.666 594.0,553.0 C591.666,553.0 589.333,553.0 587.0,553.0 C587.0,552.666 587.0,552.333 587.0,551.999 C584.666,551.999 582.333,551.999 580.0,551.999 C580.0,551.666 580.0,551.333 580.0,550.999 C579.0,550.999 577.999,550.999 577.0,550.999 C577.0,550.666 577.0,550.333 577.0,550.0 C575.666,549.666 574.333,549.333 573.0,549.0 C573.0,548.666 573.0,548.333 573.0,548.0 C572.333,548.0 571.666,548.0 570.999,548.0 C570.666,547.333 570.333,546.666 570.0,545.999 C568.666,545.666 567.333,545.333 566.0,545.0 C564.666,543.333 563.333,541.666 562.0,540.0 C561.333,539.666 560.666,539.333 559.999,539.0 C559.999,538.333 559.999,537.666 559.999,536.999 C559.333,536.666 558.666,536.333 558.0,536.0 C557.666,535.0 557.333,533.999 556.999,532.999 C556.666,532.999 556.333,532.999 555.999,532.999 C555.666,531.666 555.333,530.333 555.0,529.0 C554.666,529.0 554.333,529.0 554.0,529.0 C554.0,528.333 554.0,527.666 554.0,526.999 C553.666,526.999 553.333,526.999 552.999,526.999 C552.67,524.846 549.122,510.99 550.0,507.0 C550.333,507.0 550.666,507.0 551.0,507.0 C551.0,505.0 551.0,502.999 551.0,501.0 C551.333,501.0 551.666,501.0 552.0,501.0 C552.0,499.666 552.0,498.333 552.0,497.0 C552.333,497.0 552.666,497.0 552.999,497.0 C552.999,496.0 552.999,494.999 552.999,493.999 C553.333,493.999 553.666,493.999 554.0,493.999 C554.666,492.0 555.333,489.999 555.999,488.0 C556.333,488.0 556.666,488.0 556.999,488.0 C556.999,487.333 556.999,486.666 556.999,485.999 C557.999,485.333 559.0,484.666 559.999,484.0 C559.999,483.333 559.999,482.666 559.999,482.0 C563.999,478.333 568.0,474.666 572.0,470.999 C572.0,470.333 572.0,469.666 572.0,469.0 C572.999,468.666 574.0,468.333 575.0,468.0 C575.999,466.333 577.0,464.666 577.999,463.0 C581.476,459.175 588.481,455.420 590.0,450.0 C590.666,450.0 591.333,450.0 591.999,450.0 C596.249,442.77 604.204,437.398 609.999,431.0 C610.333,430.0 610.666,428.999 611.0,427.999 C613.333,426.0 615.666,423.999 618.0,422.0 C620.333,419.333 622.666,416.666 624.999,413.999 C625.999,413.333 627.0,412.666 627.999,412.0 C627.999,411.333 627.999,410.666 627.999,409.999 C629.999,408.333 632.0,406.666 634.0,404.999 C636.333,402.333 638.666,399.666 641.0,397.0 C642.333,396.0 643.666,394.999 645.0,394.0 C645.0,393.333 645.0,392.666 645.0,391.999 C645.333,391.999 645.666,391.999 645.999,391.999 C646.333,391.333 646.666,390.666 647.0,390.0 C647.666,390.0 648.333,390.0 649.0,390.0 C650.402,384.804 657.526,380.574 661.0,376.999 C661.0,376.666 661.0,376.333 661.0,375.999 C661.666,375.666 662.333,375.333 663.0,375.0 C663.0,374.333 663.0,373.666 663.0,372.999 C664.333,372.333 665.666,371.666 666.999,371.0 C666.999,370.333 666.999,369.666 666.999,369.0 C671.332,365.0 675.667,360.999 680.0,357.0 C680.0,356.333 680.0,355.666 680.0,355.0 C681.333,354.333 682.666,353.666 684.0,352.999 C684.333,352.0 684.666,350.999 684.999,350.0 C688.467,346.203 696.562,341.212 698.0,336.0 C702.62,334.948 699.245,335.559 701.0,333.0 C701.333,333.0 701.666,333.0 702.0,333.0 C702.333,332.0 702.666,330.999 702.999,329.999 C697.667,325.0 692.332,319.999 687.0,314.999 C687.0,314.333 687.0,313.666 687.0,313.0 C683.666,310.0 680.332,306.999 677.0,304.0 C673.667,300.0 670.333,295.999 666.999,291.999 C663.271,288.234 653.384,281.112 652.0,276.0 C651.333,276.0 650.666,276.0 649.999,276.0 C649.999,275.333 649.999,274.666 649.999,273.999 C647.102,272.369 635.851,261.242 634.999,258.0 C634.333,258.0 633.666,258.0 633.0,258.0 C631.333,255.666 629.666,253.333 627.999,250.999 C623.333,246.667 618.666,242.332 613.999,238.0 C613.999,237.333 613.999,236.666 613.999,235.999 C613.333,235.666 612.666,235.333 612.0,234.999 C611.0,233.666 609.999,232.333 609.0,230.999 C604.667,227.0 600.332,222.999 595.999,219.0 C595.999,218.333 595.999,217.666 595.999,216.999 C595.333,216.666 594.666,216.333 594.0,215.999 C592.333,214.0 590.666,211.999 588.999,210.0 C585.667,207.0 582.333,203.999 579.0,201.0 C579.0,200.333 579.0,199.666 579.0,198.999 C578.333,198.666 577.666,198.333 577.0,197.999 C577.0,197.666 577.0,197.333 577.0,196.999 C572.0,192.333 566.999,187.666 562.0,182.999 C562.0,182.333 562.0,181.666 562.0,181.0 C560.666,180.0 559.333,178.999 558.0,177.999 C558.0,177.333 558.0,176.666 558.0,175.999 C557.333,175.666 556.666,175.333 555.999,174.999 C555.666,173.666 555.333,172.333 555.0,170.999 C554.666,170.999 554.333,170.999 554.0,170.999 C554.0,170.333 554.0,169.666 554.0,168.999 C553.666,168.999 553.333,168.999 552.999,168.999 C552.666,166.666 552.333,164.333 552.0,162.0 C551.666,162.0 551.333,162.0 551.0,162.0 C550.666,157.667 550.333,153.332 550.0,149.0 C550.333,149.0 550.666,149.0 551.0,149.0 C551.0,146.666 551.0,144.333 551.0,141.999 C551.333,141.999 551.666,141.999 552.0,141.999 C552.0,141.0 552.0,139.999 552.0,139.0 C552.333,139.0 552.666,139.0 552.999,139.0 C552.999,138.0 552.999,136.999 552.999,135.999 C553.333,135.999 553.666,135.999 554.0,135.999 C554.0,135.0 554.0,133.999 554.0,132.999 C554.666,132.666 555.333,132.333 555.999,131.999 C556.333,130.666 556.666,129.333 556.999,127.999 C557.666,127.666 558.333,127.333 559.0,126.999 C559.0,126.333 559.0,125.666 559.0,125.0 C560.999,123.333 563.0,121.666 565.0,120.0 C565.333,119.333 565.666,118.666 566.0,117.999 C566.666,117.999 567.333,117.999 568.0,117.999 C568.333,117.333 568.666,116.666 569.0,116.0 C569.666,116.0 570.333,116.0 570.999,116.0 C571.333,115.333 571.666,114.666 572.0,113.999 C572.999,113.999 574.0,113.999 575.0,113.999 C575.0,113.666 575.0,113.333 575.0,112.999 C575.666,112.999 576.333,112.999 577.0,112.999 C577.0,112.666 577.0,112.333 577.0,111.999 C577.999,111.999 579.0,111.999 580.0,111.999 C580.0,111.666 580.0,111.333 580.0,111.0 C584.153,109.530 596.851,109.518 601.0,111.0 C601.0,111.333 601.0,111.666 601.0,111.999 C601.999,111.999 603.0,111.999 604.0,111.999 C604.0,112.333 604.0,112.666 604.0,112.999 C604.666,112.999 605.333,112.999 605.999,112.999 C605.999,113.333 605.999,113.666 605.999,113.999 C606.999,113.999 608.0,113.999 609.0,113.999 C609.333,114.666 609.666,115.333 609.999,116.0 C610.666,116.0 611.333,116.0 612.0,116.0 C612.666,116.999 613.333,118.0 613.999,118.999 C614.666,118.999 615.333,118.999 616.0,118.999 C616.666,119.999 617.333,121.0 618.0,121.999 C620.333,123.999 622.666,126.0 624.999,127.999 C624.999,128.666 624.999,129.333 624.999,130.0 C628.666,133.333 632.333,136.666 636.0,140.0 C637.666,141.999 639.333,144.0 641.0,145.999 C641.666,146.333 642.333,146.666 643.0,146.999 C643.0,147.666 643.0,148.333 643.0,149.0 C648.999,154.666 655.0,160.333 661.0,165.999 C661.0,166.666 661.0,167.333 661.0,168.0 C667.332,173.999 673.667,180.0 680.0,186.0 C680.0,186.666 680.0,187.333 680.0,187.999 C683.999,191.666 688.0,195.333 692.0,198.999 C697.332,204.999 702.667,211.0 708.0,216.999 C710.666,219.333 713.333,221.666 716.0,224.0 C716.0,224.666 716.0,225.333 716.0,225.999 C721.999,231.666 728.0,237.333 734.0,243.0 C734.0,243.666 734.0,244.333 734.0,244.999 C734.666,245.333 735.333,245.666 736.0,245.999 C737.666,247.999 739.333,250.0 741.0,252.0 C744.332,254.999 747.666,258.0 751.0,261.0 C751.0,261.666 751.0,262.333 751.0,262.999 C751.999,263.666 753.0,264.333 754.0,264.999 C755.666,266.999 757.333,269.0 759.0,271.0 C762.332,273.999 765.666,277.0 769.0,280.0 C769.0,280.666 769.0,281.333 769.0,281.999 C769.333,281.999 769.666,281.999 770.0,281.999 C770.666,282.999 771.333,284.0 772.0,285.0 C775.603,288.639 784.628,294.973 786.0,300.0 ZM182.0,125.999 C181.333,125.999 180.666,125.999 179.999,125.999 C178.90,133.105 166.973,136.862 164.999,144.0 C164.333,144.0 163.666,144.0 162.999,144.0 C160.836,148.599 157.326,150.671 154.0,154.0 C153.666,154.666 153.333,155.333 152.999,155.999 C150.851,158.155 148.972,158.455 147.999,162.0 C147.333,162.0 146.666,162.0 146.0,162.0 C143.836,166.599 140.326,168.671 136.999,172.0 C136.666,172.666 136.333,173.333 136.0,173.999 C133.851,176.155 131.972,176.455 130.999,179.999 C130.333,179.999 129.666,179.999 129.0,179.999 C126.210,185.120 121.924,188.75 118.0,191.999 C116.333,193.999 114.666,196.0 112.999,197.999 C111.666,198.999 110.333,200.0 108.999,201.0 C108.999,201.666 108.999,202.333 108.999,202.999 C103.333,208.332 97.666,213.667 91.999,219.0 C91.999,219.666 91.999,220.333 91.999,220.999 C91.333,221.333 90.666,221.666 89.999,221.999 C89.999,222.333 89.999,222.666 89.999,222.999 C86.106,227.17 75.463,234.670 73.999,239.999 C73.333,239.999 72.666,239.999 71.999,239.999 C70.90,247.105 58.973,250.862 57.0,258.0 C56.333,258.0 55.666,258.0 54.999,258.0 C52.836,262.599 49.326,264.671 46.0,267.999 C45.666,268.666 45.333,269.333 44.999,269.999 C42.851,272.155 40.972,272.455 39.999,276.0 C39.333,276.0 38.666,276.0 37.999,276.0 C35.522,280.533 31.541,284.447 27.999,287.999 C25.852,290.154 23.969,290.455 22.999,294.0 C22.333,294.0 21.666,294.0 21.0,294.0 C18.924,297.737 15.905,301.39 12.999,304.0 C12.0,304.666 10.999,305.333 9.999,305.999 C9.999,306.666 9.999,307.333 9.999,308.0 C9.333,308.333 8.666,308.666 7.999,309.0 C7.999,309.666 7.999,310.333 7.999,310.999 C7.666,310.999 7.333,310.999 7.0,310.999 C6.666,312.333 6.333,313.666 5.999,314.999 C5.666,314.999 5.333,314.999 4.999,314.999 C4.666,316.999 4.333,319.0 3.999,320.999 C3.666,320.999 3.333,320.999 3.0,320.999 C3.0,322.999 3.0,325.0 3.0,327.0 C2.571,328.495 1.140,332.990 1.999,336.0 C2.333,336.0 2.666,336.0 3.0,336.0 C3.0,337.999 3.0,340.0 3.0,342.0 C3.333,342.0 3.666,342.0 3.999,342.0 C3.999,342.999 3.999,344.0 3.999,344.999 C4.333,344.999 4.666,344.999 4.999,344.999 C4.999,345.666 4.999,346.333 4.999,347.0 C5.333,347.0 5.666,347.0 5.999,347.0 C5.999,347.999 5.999,349.0 5.999,350.0 C6.333,350.0 6.666,350.0 7.0,350.0 C7.0,350.666 7.0,351.333 7.0,352.0 C7.333,352.0 7.666,352.0 7.999,352.0 C7.999,352.666 7.999,353.333 7.999,353.999 C8.999,354.666 10.0,355.333 10.999,356.0 C10.999,356.666 10.999,357.333 10.999,357.999 C15.332,361.999 19.667,366.0 23.999,370.0 C23.999,370.666 23.999,371.333 23.999,371.999 C24.999,372.666 26.0,373.333 26.999,374.0 C29.333,376.666 31.666,379.333 33.999,381.999 C36.999,384.666 40.0,387.333 43.0,390.0 C43.0,390.666 43.0,391.333 43.0,391.999 C48.666,397.332 54.333,402.667 59.999,408.0 C59.999,408.666 59.999,409.333 59.999,409.999 C60.666,410.333 61.333,410.666 61.999,410.999 C63.666,412.999 65.333,415.0 66.999,417.0 C70.666,420.333 74.333,423.667 77.999,427.0 C77.999,427.666 77.999,428.333 77.999,428.999 C83.999,434.666 90.0,440.333 96.0,446.0 C96.0,446.666 96.0,447.333 96.0,447.999 C101.999,453.666 108.0,459.333 114.0,465.0 C114.0,465.666 114.0,466.333 114.0,466.999 C117.666,470.332 121.333,473.667 125.0,477.0 C126.666,478.999 128.333,481.0 129.999,483.0 C130.666,483.333 131.333,483.666 132.0,484.0 C132.0,484.666 132.0,485.333 132.0,485.999 C136.999,490.666 142.0,495.333 147.0,499.999 C147.999,501.333 149.0,502.666 150.0,503.999 C150.333,503.999 150.666,503.999 150.999,503.999 C150.999,504.666 150.999,505.333 150.999,506.0 C154.332,508.999 157.666,512.0 161.0,515.0 C162.666,516.999 164.333,519.0 165.999,521.0 C166.999,521.666 168.0,522.333 168.999,522.999 C168.999,523.666 168.999,524.333 168.999,525.0 C172.332,527.999 175.666,531.0 179.0,534.0 C182.869,537.870 186.303,543.43 190.999,545.999 C191.666,545.999 192.333,545.999 193.0,545.999 C200.369,550.96 209.460,552.518 218.999,549.0 C219.999,549.0 221.0,549.0 222.0,549.0 C222.0,548.666 222.0,548.333 222.0,548.0 C223.333,547.666 224.666,547.333 225.999,546.999 C225.999,546.666 225.999,546.333 225.999,545.999 C226.999,545.999 228.0,545.999 229.0,545.999 C229.666,545.0 230.333,543.999 230.999,543.0 C231.666,543.0 232.333,543.0 233.0,543.0 C234.666,541.0 236.333,538.999 237.999,536.999 C238.666,536.666 239.333,536.333 240.0,536.0 C240.333,534.666 240.666,533.333 240.999,531.999 C241.666,531.666 242.333,531.333 243.0,531.0 C243.0,530.333 243.0,529.666 243.0,529.0 C248.235,519.547 249.410,508.33 244.999,497.0 C244.999,496.0 244.999,494.999 244.999,493.999 C244.666,493.999 244.333,493.999 243.999,493.999 C243.999,493.333 243.999,492.666 243.999,492.0 C243.666,492.0 243.333,492.0 243.0,492.0 C243.0,491.333 243.0,490.666 243.0,489.999 C242.333,489.666 241.666,489.333 240.999,489.0 C240.666,487.666 240.333,486.333 240.0,484.999 C239.333,484.666 238.666,484.333 237.999,484.0 C236.333,482.0 234.666,479.999 233.0,478.0 C231.333,476.666 229.666,475.333 227.999,474.0 C227.999,473.333 227.999,472.666 227.999,471.999 C225.333,469.666 222.666,467.333 219.999,465.0 C214.667,459.0 209.332,452.999 204.0,446.999 C200.0,443.333 195.999,439.666 191.999,436.0 C191.999,435.333 191.999,434.666 191.999,433.999 C186.0,428.333 179.999,422.666 173.999,417.0 C173.999,416.333 173.999,415.666 173.999,414.999 C173.333,414.666 172.666,414.333 172.0,413.999 C170.666,412.333 169.333,410.666 168.0,409.0 C164.333,405.666 160.666,402.333 157.0,399.0 C157.0,398.333 157.0,397.666 157.0,397.0 C151.0,391.333 144.999,385.666 139.0,380.0 C139.0,379.333 139.0,378.666 139.0,377.999 C138.333,377.666 137.666,377.333 136.999,376.999 C135.333,375.0 133.666,372.999 132.0,371.0 C128.0,367.333 123.999,363.666 119.999,360.0 C119.999,359.333 119.999,358.666 119.999,357.999 C119.0,357.333 117.999,356.666 116.999,356.0 C115.333,354.0 113.666,351.999 111.999,350.0 C108.667,347.0 105.333,343.999 101.999,341.0 C101.999,340.333 101.999,339.666 101.999,338.999 C101.666,338.999 101.333,338.999 100.999,338.999 C98.585,336.126 95.646,334.646 94.999,329.999 C135.995,286.671 177.4,243.328 218.0,200.0 C219.666,198.666 221.333,197.333 222.999,196.0 C222.999,195.333 222.999,194.666 222.999,193.999 C223.999,193.333 225.0,192.666 225.999,191.999 C227.999,189.666 230.0,187.333 232.0,184.999 C234.333,183.0 236.666,180.999 239.0,178.999 C239.0,178.333 239.0,177.666 239.0,177.0 C239.666,176.666 240.333,176.333 240.999,175.999 C240.999,175.333 240.999,174.666 240.999,173.999 C241.666,173.666 242.333,173.333 243.0,173.0 C243.333,171.333 243.666,169.666 243.999,168.0 C244.333,168.0 244.666,168.0 244.999,168.0 C244.999,167.333 244.999,166.666 244.999,165.999 C245.333,165.999 245.666,165.999 245.999,165.999 C246.673,164.409 248.641,151.277 247.999,149.0 C247.666,149.0 247.333,149.0 247.0,149.0 C246.666,145.333 246.333,141.666 245.999,137.999 C245.666,137.999 245.333,137.999 244.999,137.999 C244.999,137.333 244.999,136.666 244.999,135.999 C244.666,135.999 244.333,135.999 243.999,135.999 C243.333,134.0 242.666,131.999 241.999,130.0 C241.333,129.666 240.666,129.333 240.0,128.999 C240.0,128.333 240.0,127.666 240.0,126.999 C238.0,125.333 235.999,123.666 233.999,121.999 C233.333,121.0 232.666,119.999 232.0,118.999 C231.333,118.999 230.666,118.999 229.999,118.999 C229.666,118.333 229.333,117.666 229.0,116.999 C227.666,116.666 226.333,116.333 225.0,116.0 C225.0,115.666 225.0,115.333 225.0,115.0 C224.333,115.0 223.666,115.0 222.999,115.0 C222.999,114.666 222.999,114.333 222.999,113.999 C221.666,113.999 220.333,113.999 218.999,113.999 C218.999,113.666 218.999,113.333 218.999,112.999 C213.561,111.187 201.723,112.94 197.0,113.999 C197.0,114.333 197.0,114.666 197.0,115.0 C196.0,115.0 194.999,115.0 193.999,115.0 C193.666,115.666 193.333,116.333 193.0,116.999 C191.666,117.333 190.333,117.666 189.0,117.999 C188.333,118.999 187.666,120.0 186.999,121.0 C184.402,123.318 183.182,121.608 182.0,125.999 ZM655.0,276.0 C655.0,276.666 655.0,277.333 655.0,277.999 C657.897,279.630 669.148,290.757 670.0,294.0 C673.469,294.973 672.941,296.885 674.999,299.0 C678.435,302.528 685.659,306.855 687.0,311.999 C691.420,313.223 689.644,314.410 692.0,316.999 C695.333,319.999 698.667,323.0 702.0,325.999 C703.609,327.656 703.980,329.676 706.0,330.999 C706.0,331.333 706.0,331.666 706.0,332.0 C705.666,332.0 705.333,332.0 705.0,332.0 C702.502,337.342 697.898,340.101 694.0,343.999 C689.0,349.666 683.999,355.333 679.0,361.0 C675.0,364.666 670.999,368.333 666.999,371.999 C666.999,372.666 666.999,373.333 666.999,374.0 C661.0,379.666 654.999,385.333 649.0,390.999 C649.0,391.666 649.0,392.333 649.0,393.0 C648.333,393.333 647.666,393.666 647.0,394.0 C645.333,395.999 643.666,398.0 641.999,399.999 C638.333,403.332 634.666,406.666 631.0,409.999 C631.0,410.666 631.0,411.333 631.0,412.0 C625.333,417.332 619.666,422.667 613.999,427.999 C613.999,428.666 613.999,429.333 613.999,430.0 C607.667,435.999 601.332,442.0 595.0,447.999 C590.713,453.928 586.67,458.905 580.999,464.0 C579.666,464.999 578.333,466.0 577.0,466.999 C577.0,467.666 577.0,468.333 577.0,469.0 C576.0,469.666 574.999,470.333 573.999,470.999 C572.0,473.333 569.999,475.666 568.0,478.0 C566.0,479.666 563.999,481.333 562.0,483.0 C562.0,483.666 562.0,484.333 562.0,484.999 C561.0,485.666 559.999,486.333 559.0,487.0 C559.0,487.666 559.0,488.333 559.0,489.0 C558.666,489.0 558.333,489.0 558.0,489.0 C558.0,489.666 558.0,490.333 558.0,491.0 C557.666,491.0 557.333,491.0 556.999,491.0 C556.999,491.666 556.999,492.333 556.999,493.0 C556.666,493.0 556.333,493.0 555.999,493.0 C555.999,493.666 555.999,494.333 555.999,494.999 C555.666,494.999 555.333,494.999 555.0,494.999 C555.0,495.666 555.0,496.333 555.0,497.0 C554.666,497.0 554.333,497.0 554.0,497.0 C554.0,498.333 554.0,499.666 554.0,501.0 C553.666,501.0 553.333,501.0 552.999,501.0 C551.737,505.218 552.847,521.106 554.0,524.0 C554.333,524.0 554.666,524.0 555.0,524.0 C555.666,525.999 556.333,528.0 556.999,530.0 C557.333,530.0 557.666,530.0 558.0,530.0 C558.333,531.333 558.666,532.666 559.0,534.0 C559.999,534.666 561.0,535.333 562.0,536.0 C562.0,536.666 562.0,537.333 562.0,538.0 C563.333,538.999 564.666,540.0 566.0,541.0 C566.0,541.333 566.0,541.666 566.0,541.999 C566.666,541.999 567.333,541.999 568.0,541.999 C568.666,542.999 569.333,544.0 570.0,545.0 C571.333,545.333 572.666,545.666 573.999,545.999 C573.999,546.333 573.999,546.666 573.999,546.999 C575.333,547.333 576.666,547.666 577.999,548.0 C577.999,548.333 577.999,548.666 577.999,549.0 C578.999,549.0 580.0,549.0 580.999,549.0 C580.999,549.333 580.999,549.666 580.999,550.0 C582.999,550.0 585.0,550.0 587.0,550.0 C587.0,550.333 587.0,550.666 587.0,550.999 C589.333,550.999 591.666,550.999 594.0,550.999 C594.0,550.666 594.0,550.333 594.0,550.0 C595.999,550.0 598.0,550.0 600.0,550.0 C600.0,549.666 600.0,549.333 600.0,549.0 C601.666,548.666 603.333,548.333 605.0,548.0 C605.0,547.666 605.0,547.333 605.0,546.999 C605.666,546.999 606.333,546.999 606.999,546.999 C606.999,546.666 606.999,546.333 606.999,545.999 C608.333,545.666 609.666,545.333 611.0,545.0 C612.333,543.333 613.666,541.666 615.0,540.0 C615.666,540.0 616.333,540.0 616.999,540.0 C617.333,539.333 617.666,538.666 618.0,538.0 C618.333,538.0 618.666,538.0 619.0,538.0 C619.0,537.333 619.0,536.666 619.0,536.0 C624.999,530.333 631.0,524.666 637.0,518.999 C637.0,518.333 637.0,517.666 637.0,517.0 C642.666,511.667 648.333,506.332 654.0,501.0 C654.0,500.333 654.0,499.666 654.0,498.999 C658.666,494.667 663.333,490.332 668.0,485.999 C670.231,483.749 670.438,481.79 674.0,479.999 C675.909,472.894 687.26,469.137 688.999,461.999 C689.666,461.999 690.333,461.999 691.0,461.999 C693.163,457.400 696.673,455.328 699.999,451.999 C700.333,451.333 700.666,450.666 701.0,450.0 C703.148,447.844 705.27,447.544 706.0,444.0 C706.666,444.0 707.333,444.0 708.0,444.0 C710.477,439.466 714.458,435.552 718.0,432.0 C720.147,429.845 722.30,429.544 723.0,426.0 C723.666,426.0 724.333,426.0 724.999,426.0 C728.572,419.341 734.874,415.130 740.0,409.999 C744.999,404.333 750.0,398.666 755.0,393.0 C757.333,391.0 759.666,388.999 762.0,386.999 C762.0,386.333 762.0,385.666 762.0,385.0 C766.666,380.667 771.333,376.332 776.0,371.999 C778.221,369.760 778.436,367.49 781.999,366.0 C782.960,362.542 785.811,360.322 788.0,357.999 C788.666,357.666 789.333,357.333 790.0,357.0 C790.0,356.333 790.0,355.666 790.0,355.0 C790.666,354.666 791.333,354.333 792.0,353.999 C792.0,353.333 792.0,352.666 792.0,352.0 C792.333,352.0 792.666,352.0 792.999,352.0 C793.666,350.0 794.333,347.999 795.0,346.0 C795.333,346.0 795.666,346.0 796.0,346.0 C796.333,343.333 796.666,340.666 797.0,338.0 C797.333,338.0 797.666,338.0 798.0,338.0 C799.462,333.66 797.337,320.125 796.0,316.999 C795.666,316.999 795.333,316.999 795.0,316.999 C795.0,316.333 795.0,315.666 795.0,314.999 C794.666,314.999 794.333,314.999 794.0,314.999 C794.0,314.0 794.0,312.999 794.0,311.999 C793.333,311.666 792.666,311.333 792.0,310.999 C791.666,309.666 791.333,308.333 791.0,306.999 C789.333,305.666 787.666,304.333 786.0,303.0 C785.666,302.0 785.333,300.999 785.0,300.0 C784.0,299.666 782.999,299.333 781.999,299.0 C781.999,298.333 781.999,297.666 781.999,296.999 C778.333,293.666 774.666,290.332 770.999,286.999 C770.0,285.333 768.999,283.666 767.999,281.999 C767.333,281.999 766.666,281.999 766.0,281.999 C766.0,281.666 766.0,281.333 766.0,281.0 C765.333,280.666 764.666,280.333 763.999,280.0 C763.999,279.333 763.999,278.666 763.999,277.999 C763.333,277.666 762.666,277.333 762.0,276.999 C759.333,274.0 756.666,270.999 754.0,267.999 C753.0,267.333 751.999,266.666 751.0,266.0 C751.0,265.333 751.0,264.666 751.0,263.999 C750.333,263.999 749.666,263.999 749.0,263.999 C749.0,263.666 749.0,263.333 749.0,262.999 C748.333,262.666 747.666,262.333 747.0,262.0 C747.0,261.333 747.0,260.666 747.0,259.999 C746.0,259.333 744.999,258.666 744.0,258.0 C742.0,255.666 739.999,253.333 738.0,250.999 C735.333,248.666 732.666,246.333 730.0,243.999 C730.0,243.333 730.0,242.666 730.0,242.0 C729.0,241.333 727.999,240.666 727.0,239.999 C725.333,238.0 723.666,235.999 722.0,234.0 C719.0,231.333 715.999,228.666 713.0,225.999 C713.0,225.333 713.0,224.666 713.0,224.0 C710.0,221.333 706.999,218.666 704.0,215.999 C702.333,214.0 700.666,211.999 699.0,210.0 C698.0,209.333 696.999,208.666 695.999,207.999 C695.999,207.333 695.999,206.666 695.999,206.0 C695.666,206.0 695.333,206.0 695.0,206.0 C694.666,205.333 694.333,204.666 694.0,203.999 C693.333,203.999 692.666,203.999 692.0,203.999 C692.0,203.333 692.0,202.666 692.0,201.999 C687.333,197.667 682.666,193.332 677.999,188.999 C677.999,188.333 677.999,187.666 677.999,187.0 C676.666,186.333 675.333,185.666 674.0,184.999 C674.0,184.333 674.0,183.666 674.0,182.999 C670.333,179.666 666.666,176.333 663.0,173.0 C662.0,171.333 660.999,169.666 659.999,168.0 C659.0,167.666 657.999,167.333 656.999,167.0 C656.999,166.333 656.999,165.666 656.999,164.999 C656.333,164.666 655.666,164.333 655.0,163.999 C652.0,160.666 648.999,157.333 645.999,154.0 C645.0,153.333 643.999,152.666 643.0,151.999 C643.0,151.333 643.0,150.666 643.0,149.999 C642.333,149.999 641.666,149.999 641.0,149.999 C640.666,149.0 640.333,147.999 640.0,146.999 C639.0,146.333 637.999,145.666 637.0,144.999 C635.333,143.0 633.666,140.999 631.999,139.0 C628.667,136.0 625.333,132.999 622.0,130.0 C622.0,129.333 622.0,128.666 622.0,127.999 C620.666,127.0 619.333,125.999 618.0,125.0 C616.666,123.333 615.333,121.666 613.999,120.0 C613.333,120.0 612.666,120.0 612.0,120.0 C611.666,119.333 611.333,118.666 611.0,117.999 C610.0,117.666 608.999,117.333 608.0,116.999 C608.0,116.666 608.0,116.333 608.0,116.0 C607.333,116.0 606.666,116.0 605.999,116.0 C605.999,115.666 605.999,115.333 605.999,115.0 C605.333,115.0 604.666,115.0 604.0,115.0 C604.0,114.666 604.0,114.333 604.0,113.999 C601.966,113.190 588.953,111.141 586.0,111.999 C586.0,112.333 586.0,112.666 586.0,112.999 C584.333,112.999 582.666,112.999 580.999,112.999 C580.999,113.333 580.999,113.666 580.999,113.999 C579.666,113.999 578.333,113.999 577.0,113.999 C577.0,114.333 577.0,114.666 577.0,115.0 C575.666,115.333 574.333,115.666 573.0,116.0 C573.0,116.333 573.0,116.666 573.0,116.999 C572.333,116.999 571.666,116.999 570.999,116.999 C570.333,117.999 569.666,119.0 569.0,120.0 C568.333,120.0 567.666,120.0 566.999,120.0 C565.333,121.999 563.666,124.0 562.0,125.999 C561.333,126.333 560.666,126.666 559.999,126.999 C559.666,128.333 559.333,129.666 559.0,130.999 C558.333,131.333 557.666,131.666 556.999,131.999 C556.666,133.666 556.333,135.333 555.999,136.999 C555.666,136.999 555.333,136.999 555.0,136.999 C555.0,137.666 555.0,138.333 555.0,139.0 C554.666,139.0 554.333,139.0 554.0,139.0 C554.0,139.999 554.0,141.0 554.0,141.999 C553.666,141.999 553.333,141.999 552.999,141.999 C551.334,147.244 553.695,165.36 555.0,168.0 C555.333,168.0 555.666,168.0 555.999,168.0 C556.333,169.333 556.666,170.666 556.999,172.0 C557.333,172.0 557.666,172.0 558.0,172.0 C558.0,172.666 558.0,173.333 558.0,173.999 C558.666,174.333 559.333,174.666 559.999,174.999 C559.999,175.666 559.999,176.333 559.999,177.0 C561.666,178.333 563.333,179.666 565.0,181.0 C565.0,181.666 565.0,182.333 565.0,182.999 C566.333,183.999 567.666,185.0 569.0,186.0 C571.666,188.999 574.333,192.0 577.0,195.0 C578.999,196.666 581.0,198.333 583.0,200.0 C583.0,200.666 583.0,201.333 583.0,201.999 C588.999,207.666 595.0,213.333 601.0,219.0 C601.0,219.666 601.0,220.333 601.0,220.999 C603.999,223.666 607.0,226.333 609.999,229.0 C611.666,230.999 613.333,233.0 615.0,234.999 C615.999,235.666 617.0,236.333 618.0,236.999 C618.0,237.666 618.0,238.333 618.0,239.0 C620.666,241.333 623.333,243.666 626.0,245.999 C627.999,248.333 630.0,250.666 631.999,253.0 C632.999,253.666 634.0,254.333 634.999,254.999 C634.999,255.666 634.999,256.333 634.999,257.0 C638.999,260.666 643.0,264.333 647.0,267.999 C647.999,269.333 649.0,270.666 649.999,272.0 C650.666,272.333 651.333,272.666 652.0,272.999 C652.333,273.999 652.666,275.0 652.999,276.0 C653.666,276.0 654.333,276.0 655.0,276.0 Z"/>
</svg>